<svg width="4124" height="10459" viewBox="0 0 4124 10459" fill="none"
  xmlns="http://www.w3.org/2000/svg">
  <path
    d="M1822.18 3129.85C1968.52 3312.14 2072.7 3524.96 2127.17 3752.84C2180.03 3979.3 2153.78 4209.76 2155.75 4439.78C2155.36 4742.62 2234.79 4991.76 2447.08 5210.14C2615.18 5382.04 2814.48 5521.84 2968.45 5709.1C3277.7 6085.35 3367.99 6521 3336.95 6999.44C3301.77 7541.1 3207.22 8054.13 3493.97 8549.8C3647.72 8815.8 3844.39 9055.08 3958 9344.01C4060.88 9625.72 4115.2 9923.05 4118.6 10223.1C4120.54 10256.3 4058.23 10270.2 4055.49 10233.5C4043.76 9947.68 3990.65 9665.13 3897.84 9394.75C3804.66 9147.03 3650.38 8933.74 3508.85 8712.45C3366.36 8504.79 3270.53 8268.34 3228.05 8019.61C3203.2 7795.16 3205.14 7568.54 3233.82 7344.6C3258.35 7084.56 3291.06 6820.42 3263.25 6559.8C3232.5 6301.27 3136.39 6054.96 2984.15 5844.45C2715.64 5465.82 2224.71 5252.16 2114.19 4768.64C2060.88 4534.34 2097.21 4291.18 2094.81 4053.91C2091.26 3724.65 1966.59 3431.52 1792.58 3158.22C1781.37 3141.31 1809.08 3111.23 1823.35 3129.17L1822.18 3129.85Z"
    fill="#37474F" />
  <path
    d="M1775.13 3674.02C1749.21 3579.84 1871.65 3266.87 1906.5 3256.36C1941.35 3245.85 2188.21 3448.89 2216.29 3549C2219.95 3569.07 2218.31 3589.76 2211.51 3608.98C2204.72 3628.19 2193.01 3645.26 2177.58 3658.46C2136.11 3696.69 2086.33 3724.6 2032.21 3739.95C1978.09 3755.31 1921.15 3757.67 1865.94 3746.86C1845.81 3743.77 1826.83 3735.42 1810.9 3722.64C1794.97 3709.86 1782.63 3693.1 1775.13 3674.02Z"
    fill="#5CA6D1" />
  <path opacity="0.1"
    d="M1775.13 3674.02C1749.21 3579.84 1871.65 3266.87 1906.5 3256.36C1941.35 3245.85 2188.21 3448.89 2216.29 3549C2219.95 3569.07 2218.31 3589.76 2211.51 3608.98C2204.72 3628.19 2193.01 3645.26 2177.58 3658.46C2136.11 3696.69 2086.33 3724.6 2032.21 3739.95C1978.09 3755.31 1921.15 3757.67 1865.94 3746.86C1845.81 3743.77 1826.83 3735.42 1810.9 3722.64C1794.97 3709.86 1782.63 3693.1 1775.13 3674.02Z"
    fill="#5CA6D1" />
  <path
    d="M141.129 1937.14C342.317 2656.42 1157.24 3406.58 1937.81 3370.81C2616.83 2953.95 2928.32 1923.79 2726.57 1205.15C2524.82 486.508 1877.08 -55.9628 1043.87 180.311C210.663 416.585 -60.8687 1214.27 141.129 1937.14Z"
    fill="#5CA6D1" />
  <path opacity="0.05"
    d="M2776.21 1592.9C2776.21 1592.9 2776.91 2337.79 1944.75 2633.35C1142.62 2918.08 224.507 2202.4 81.0262 1596.64C89.6028 1710.85 109.479 1823.92 140.357 1934.16C341.545 2653.44 1156.47 3403.6 1937.04 3367.83C2500.01 3022.53 2809.42 2255.95 2784.67 1593.62L2776.21 1592.9Z"
    fill="black" />
</svg>
  