<svg width="6912" height="10857" viewBox="0 0 6912 10857" fill="none"
  xmlns="http://www.w3.org/2000/svg">
  <path
    d="M2824.94 3411.77C2764.92 3637.69 2755.79 3874.48 2798.23 4104.9C2841.55 4333.37 2958.84 4533.48 3050.14 4744.62C3173.08 5021.38 3201.3 5281.35 3095.57 5566.97C3011.43 5792.2 2885.78 6000.71 2820.78 6234.26C2690.3 6703.49 2784.07 7138.4 3006.12 7563.33C3257.54 8044.4 3551.66 8475.25 3490.08 9044.56C3457.16 9350.03 3374.17 9648.44 3387.24 9958.63C3407.19 10257.9 3477.87 10551.7 3596.22 10827.5C3607.89 10858.7 3670.5 10846.2 3658.12 10811.4C3553.17 10545.4 3487.36 10265.5 3462.79 9980.68C3447.72 9716.44 3502.47 9458.96 3542.31 9199.32C3588.55 8951.75 3580.47 8696.75 3518.63 8452.11C3450.5 8236.81 3357 8030.37 3240.13 7837.21C3112.45 7609.36 2975.62 7381.06 2895.55 7131.49C2819.03 6882.63 2807.21 6618.5 2861.22 6364.39C2953.49 5909.48 3315.92 5515.38 3221.26 5028.51C3175.17 4792.68 3043.53 4585.04 2949.68 4367.1C2819.65 4064.59 2815 3746.08 2863.49 3425.73C2866.89 3405.73 2829.39 3389.44 2823.6 3411.63L2824.94 3411.77Z"
    fill="#37474F" />
  <path
    d="M3088.23 3890.33C3073.81 3793.72 2835.17 3557.09 2799.05 3561.58C2762.92 3566.08 2619.38 3851.67 2634.23 3954.58C2639 3974.42 2648.88 3992.67 2662.87 4007.49C2676.86 4022.31 2694.47 4033.18 2713.93 4039C2767.32 4057.18 2824.14 4062.55 2879.84 4054.68C2935.54 4046.81 2988.57 4025.92 3034.68 3993.69C3051.84 3982.72 3065.81 3967.4 3075.2 3949.27C3084.6 3931.13 3089.09 3910.81 3088.23 3890.33Z"
    fill="#79CA95" />
  <path opacity="0.1"
    d="M3088.23 3890.33C3073.81 3793.72 2835.17 3557.09 2799.05 3561.58C2762.92 3566.08 2619.38 3851.67 2634.23 3954.58C2639 3974.42 2648.88 3992.67 2662.87 4007.49C2676.86 4022.31 2694.47 4033.18 2713.93 4039C2767.32 4057.18 2824.14 4062.55 2879.84 4054.68C2935.54 4046.81 2988.57 4025.92 3034.68 3993.69C3051.84 3982.72 3065.81 3967.4 3075.2 3949.27C3084.6 3931.13 3089.09 3910.81 3088.23 3890.33Z"
    fill="#79CA95" />
  <path
    d="M3879.35 1640.7C3986.52 2379.86 3544.99 3395.67 2816.74 3678.91C2027.1 3572.58 1325.29 2756.68 1218.88 2017.87C1112.48 1279.07 1485.21 520.837 2342.74 399.628C3200.28 278.42 3771.46 897.93 3879.35 1640.7Z"
    fill="#79CA95" />
  <path opacity="0.05"
    d="M1330.45 2392.52C1330.45 2392.52 1631.31 3073.95 2511.89 3007.38C3360.63 2943.06 3910.47 1917 3796.48 1305.01C3834.87 1412.92 3862.46 1524.35 3878.85 1637.66C3986.02 2376.82 3544.49 3392.63 2816.24 3675.88C2161.69 3588.01 1568.46 3012.27 1323 2396.6L1330.45 2392.52Z"
    fill="black" />
</svg>
  