<svg width="4778" height="11626" viewBox="0 0 4778 11626" fill="none"
  xmlns="http://www.w3.org/2000/svg">
  <path
    d="M2646.17 3391.93C2690.49 3727.27 2635.34 4068.78 2487.64 4373.63C2358.64 4632.73 2173.18 4862.42 2110.33 5150.48C2010.72 5605.05 2192.42 6058.94 2317.4 6487.82C2395.42 6721.64 2438.33 6966.01 2444.72 7212.89C2440.17 7512.42 2320.82 7783.87 2174.97 8040.27C1898.51 8527.65 1594.55 8970.15 1714.48 9554.87C1780.96 9876.74 1917.69 10177.8 1972.34 10502.5C2028.82 10859.6 2014.47 11224.8 1930.12 11576.9C1922.71 11608.9 1978.01 11639.8 1987.38 11604C2067.48 11311.7 2095.51 11007.7 2070.16 10706C2044.23 10400.9 1949.69 10119.1 1860.62 9829.08C1771.56 9539.01 1712.98 9232.71 1803.12 8926.67C1887.39 8640.99 2055.2 8389.1 2207.45 8136.23C2343.98 7902.83 2470.84 7657.08 2506.8 7385.86C2530.62 7156.96 2511.59 6925.8 2450.7 6704.35C2335.09 6239.67 2105.59 5771.58 2161.36 5282.42C2202.48 4923.95 2444.65 4655.84 2581.4 4334.75C2711.1 4038.31 2745.43 3708.9 2679.59 3392.75C2674.5 3369.18 2643.45 3363.42 2646.74 3392.12L2646.17 3391.93Z"
    fill="#37474F" />
  <path
    d="M1706.22 1567.6C1565.95 2301.35 1966.23 3336.12 2682.61 3650.73C3475.36 3578.87 4211.24 2793.2 4349.85 2056.94C4488.45 1320.68 4147.12 549.417 3296.34 391.419C2445.56 233.421 1844.22 833.056 1706.22 1567.6Z"
    fill="#F28F8F" />
  <path opacity="0.05"
    d="M4218.98 2432C4218.98 2432 3892.77 3101.19 3012.95 2995.16C2167.98 2894.94 1662.16 1845.59 1802.82 1239.48C1759.52 1345.28 1727.15 1455.24 1706.22 1567.6C1565.95 2301.35 1966.23 3336.12 2682.61 3650.73C3339.33 3591.4 3956.88 3041.66 4228.01 2437.08L4218.98 2432Z"
    fill="black" />
</svg>
  