<svg width="6561" height="10860" viewBox="0 0 6561 10860" fill="none"
  xmlns="http://www.w3.org/2000/svg">
  <path
    d="M2732.93 3388.97C2663.64 3612.22 2644.76 3848.43 2677.65 4080.4C2711.52 4310.47 2820.45 4515.24 2902.96 4729.97C3014.39 5011.57 3031.85 5272.47 2914.43 5553.49C2821.08 5775.06 2686.93 5978.21 2612.35 6208.88C2462.63 6672.33 2538.38 7110.73 2742.71 7544.46C2974.07 8035.5 3250.16 8478.11 3165.16 9044.4C3119.66 9348.25 3024.44 9642.98 3024.7 9953.45C3032.29 10253.3 3090.78 10549.8 3197.66 10830.2C3208.04 10861.8 3271.11 10851.9 3260.17 10816.7C3166.28 10546.5 3112.08 10264.2 3099.28 9978.59C3095.11 9713.96 3160.44 9458.95 3210.96 9201.18C3267.37 8955.73 3269.82 8700.61 3218.12 8453.63C3158.93 8235.7 3074.03 8025.58 2965.22 7827.76C2847.04 7594.84 2719.75 7361.09 2650.05 7108.43C2583.86 6856.63 2582.94 6592.24 2647.38 6340.56C2758.34 5889.84 3136.72 5511.04 3062.22 5020.68C3025.91 4783.14 2902.94 4570.25 2818.16 4348.63C2700.72 4041.01 2709.21 3722.58 2770.88 3404.5C2775.1 3384.66 2738.3 3366.84 2731.6 3388.77L2732.93 3388.97Z"
    fill="#37474F" />
  <path
    d="M2976.26 3877.98C2965.84 3780.85 2737.16 3534.58 2700.88 3537.58C2664.6 3540.59 2509.4 3820.01 2519.99 3923.44C2523.94 3943.46 2533.06 3962.1 2546.43 3977.49C2559.8 3992.87 2576.94 4004.46 2596.14 4011.08C2648.74 4031.44 2705.29 4039.15 2761.27 4033.59C2817.25 4028.03 2871.09 4009.34 2918.49 3979.04C2936.08 3968.79 2950.68 3954.06 2960.81 3936.32C2970.95 3918.59 2976.27 3898.47 2976.26 3877.98Z"
    fill="#EBA189" />
  <path opacity="0.1"
    d="M2976.26 3877.98C2965.84 3780.85 2737.16 3534.58 2700.88 3537.58C2664.6 3540.59 2509.4 3820.01 2519.99 3923.44C2523.94 3943.46 2533.06 3962.1 2546.43 3977.49C2559.8 3992.87 2576.94 4004.46 2596.14 4011.08C2648.74 4031.44 2705.29 4039.15 2761.27 4033.59C2817.24 4028.03 2871.09 4009.34 2918.49 3979.04C2936.08 3968.79 2950.68 3954.06 2960.81 3936.32C2970.95 3918.59 2976.27 3898.47 2976.26 3877.98Z"
    fill="#EBA189" />
  <path
    d="M3859.5 1662.89C3936.09 2405.84 3453.03 3402.58 2713.72 3655.54C1929.14 3516.73 1261.58 2672.56 1185.74 1930C1109.91 1187.44 1513.59 445.226 2375.4 359.494C3237.21 273.762 3782.34 916.306 3859.5 1662.89Z"
    fill="#EBA189" />
  <path opacity="0.05"
    d="M1281.75 2308.94C1281.75 2308.94 1554.26 3002.19 2436.83 2972C3287.5 2942.75 3879.2 1940.25 3790.55 1324.08C3824.45 1433.47 3847.42 1545.95 3859.12 1659.84C3935.72 2402.79 3452.66 3399.52 2713.35 3652.49C2062.97 3537.69 1494.01 2937.97 1274.15 2312.71L1281.75 2308.94Z"
    fill="black" />
</svg>
  