<svg width="3533" height="10271" viewBox="0 0 3533 10271" fill="none"
  xmlns="http://www.w3.org/2000/svg">
  <path
    d="M1883.02 3025.48C1747.53 3215.97 1655.9 3434.5 1614.77 3665.16C1575.17 3894.3 1614.77 4122.84 1626.17 4352.59C1644.18 4654.9 1579.37 4908.23 1380.13 5138.59C1222.31 5319.97 1031.48 5471.12 888.654 5667.01C601.807 6060.61 536.996 6500.77 595.806 6976.6C662.416 7515.3 786.636 8021.97 529.194 8533.46C391.171 8807.96 208.742 9058.27 112.127 9353.31C25.796 9640.53 -11.1429 9940.51 2.90819 10240.3C2.90819 10273.5 65.9184 10283.8 66.5185 10246.9C61.6088 9960.95 98.2011 9675.79 175.136 9400.47C253.749 9147.75 395.372 8925.85 523.793 8696.71C653.97 8481.11 735.888 8239.49 763.832 7988.71C775.589 7763.19 760.479 7537.07 718.825 7315.18C679.218 7057.01 631.211 6795.21 643.813 6533.42C659.487 6273.54 741.104 6022.06 880.852 5803.05C1126.89 5409.45 1604.57 5167.61 1686.78 4678.48C1726.39 4441.47 1675.98 4200.84 1664.58 3963.83C1648.98 3634.92 1756.4 3335.04 1914.22 3052.08C1924.42 3034.55 1895.02 3006.13 1881.82 3024.87L1883.02 3025.48Z"
    fill="#37474F" />
  <path
    d="M1961.63 3566C1982.03 3470.47 1841.61 3165.14 1806.2 3156.68C1770.79 3148.21 1536.16 3365.27 1513.95 3466.84C1511.46 3487.09 1514.3 3507.65 1522.21 3526.44C1530.11 3545.22 1542.78 3561.58 1558.96 3573.86C1602.58 3609.62 1653.9 3634.59 1708.82 3646.77C1763.74 3658.95 1820.72 3658 1875.21 3643.99C1895.13 3639.74 1913.59 3630.3 1928.75 3616.61C1943.91 3602.93 1955.25 3585.48 1961.63 3566Z"
    fill="#FBE67F" />
  <path opacity="0.1"
    d="M1961.63 3566C1982.03 3470.47 1841.61 3165.14 1806.2 3156.68C1770.79 3148.21 1536.16 3365.27 1513.95 3466.84C1511.46 3487.09 1514.3 3507.65 1522.21 3526.44C1530.11 3545.22 1542.78 3561.58 1558.96 3573.86C1602.58 3609.62 1653.9 3634.59 1708.82 3646.77C1763.74 3658.95 1820.72 3658 1875.21 3643.99C1895.13 3639.74 1913.59 3630.3 1928.75 3616.61C1943.91 3602.93 1955.25 3585.48 1961.63 3566Z"
    fill="#FBE67F" />
  <path
    d="M3491.88 1737.05C3332.85 2466.81 2562.93 3263.08 1781.6 3272.76C1079.48 2896.08 708.623 1885.78 868.249 1156.62C1027.87 427.467 1642.98 -151.748 2488.51 35.6809C3334.05 223.11 3651.5 1003.66 3491.88 1737.05Z"
    fill="#FBE67F" />
  <path opacity="0.05"
    d="M841.242 1546.6C841.242 1546.6 883.849 2290.27 1731.79 2536.95C2549.12 2774.56 3424.06 2006.71 3532.08 1393.64C3530.16 1508.15 3516.89 1622.18 3492.48 1734.03C3333.45 2463.79 2563.52 3260.06 1782.2 3269.74C1200.1 2957.76 846.642 2210.46 832.84 1547.81L841.242 1546.6Z"
    fill="black" />
</svg>
  