<svg width="153" height="159" viewBox="0 0 153 159" fill="none" xmlns="http://www.w3.org/2000/svg">
  <g filter="url(#filter0_d_1_32)">
    <circle cx="76.5" cy="76.5" r="64.5" fill="white" />
    <circle cx="76.5" cy="76.5" r="70.5" stroke="#8C5DE5" stroke-width="12" />
  </g>
  <g filter="url(#filter1_i_1_32)">
    <circle cx="76.5" cy="76.5" r="64.5" fill="white" />
  </g>
  <g clip-path="url(#clip0_1_32)">
    <path
      d="M94.483 49.096C97.712 47.096 100.807 46.663 103.197 47.877C108.556 50.597 107.78 60.722 105.587 65.109C104.349 67.586 102.155 69.396 99.06 70.496C97.86 74.295 96.176 77.56 94.026 80.26C95.4508 81.4497 97.2488 82.1 99.105 82.097H99.195L102.215 79.115C102.976 78.365 104.209 78.364 104.969 79.115C105.729 79.865 105.729 81.083 104.969 81.833L104.702 82.097H105.31C106.385 82.097 107.257 82.958 107.257 84.02C107.257 85.081 106.385 85.942 105.31 85.942H104.702L104.969 86.206C105.729 86.956 105.729 88.174 104.969 88.925C104.589 89.3 104.091 89.488 103.593 89.488C103.094 89.488 102.596 89.3 102.216 88.925L99.194 85.942H99.104C96.2702 85.9461 93.5291 84.9322 91.38 83.085C90.965 83.462 90.537 83.823 90.096 84.168C86.364 87.088 81.802 88.785 76.469 89.25C77.1488 91.2987 77.2672 93.492 76.812 95.602L76.792 95.692L79.117 99.352C79.3983 99.7947 79.4942 100.33 79.384 100.843C79.2738 101.356 78.9663 101.805 78.528 102.093C78.2138 102.299 77.8465 102.408 77.471 102.409C77.1412 102.409 76.8168 102.325 76.5281 102.166C76.2394 102.006 75.9958 101.776 75.82 101.497L75.614 101.173L75.484 101.778C75.3917 102.218 75.1515 102.613 74.8034 102.897C74.4553 103.181 74.0204 103.337 73.571 103.34C73.4301 103.34 73.2896 103.324 73.152 103.294C72.6414 103.178 72.1974 102.865 71.9168 102.423C71.6362 101.981 71.5417 101.445 71.654 100.934L71.784 100.329L71.464 100.538C71.2476 100.679 71.0053 100.775 70.7513 100.821C70.4973 100.867 70.2366 100.862 69.9845 100.807C69.7323 100.751 69.4938 100.646 69.2827 100.498C69.0716 100.349 68.8923 100.16 68.755 99.941C68.4742 99.4982 68.3786 98.9628 68.489 98.4502C68.5994 97.9376 68.9068 97.4889 69.345 97.201L72.962 94.848L72.982 94.758C73.3757 92.9317 73.1237 91.0253 72.269 89.364C70.664 89.3168 69.0627 89.1833 67.472 88.964C62.788 88.33 60.131 90.397 59.428 91.045C53.91 96.138 52.842 105.137 52.832 105.228C52.778 105.71 52.5484 106.156 52.1869 106.48C51.8255 106.804 51.3574 106.984 50.872 106.985C50.5502 106.985 50.2333 106.905 49.9492 106.754C49.665 106.603 49.4222 106.385 49.242 106.118C49.155 105.988 47.078 102.884 46.167 98.503C44.93 92.553 46.405 87.096 50.433 82.72C52.8212 80.1362 55.8285 78.2037 59.171 77.105L58.764 77.211C57.707 76.7187 56.555 76.4638 55.389 76.464H55.299L52.267 79.447C51.8983 79.8091 51.4018 80.0114 50.885 80.01C50.385 80.01 49.885 79.822 49.503 79.447C49.3217 79.27 49.1777 79.0586 49.0793 78.8251C48.981 78.5916 48.9303 78.3408 48.9303 78.0875C48.9303 77.8342 48.981 77.5834 49.0793 77.3499C49.1777 77.1164 49.3217 76.905 49.503 76.728L49.771 76.464H49.161C48.081 76.464 47.207 75.604 47.207 74.542C47.207 73.48 48.082 72.62 49.161 72.62H49.771L49.503 72.356C49.3216 72.179 49.1774 71.9675 49.079 71.7339C48.9805 71.5004 48.9298 71.2495 48.9298 70.996C48.9298 70.7425 48.9805 70.4916 49.079 70.2581C49.1774 70.0245 49.3216 69.813 49.503 69.636C50.266 68.886 51.503 68.886 52.267 69.636L55.299 72.619H55.389C57.0106 72.6155 58.6157 72.9443 60.1053 73.5852C61.5949 74.226 62.9374 75.1653 64.05 76.345L63.833 76.122C65.6146 75.9445 67.4109 75.9763 69.185 76.217C74.131 76.887 78.175 76.199 81.298 74.165C79.5384 71.985 78.5816 69.2665 78.588 66.465V66.373L75.6 63.287C75.2379 62.9085 75.0358 62.4048 75.0358 61.881C75.0358 61.3572 75.2379 60.8535 75.6 60.475C75.776 60.2909 75.9875 60.1444 76.2216 60.0443C76.4558 59.9442 76.7078 59.8926 76.9625 59.8926C77.2172 59.8926 77.4692 59.9442 77.7034 60.0443C77.9376 60.1444 78.149 60.2909 78.325 60.475L78.59 60.748V60.127C78.59 59.028 79.452 58.138 80.516 58.138C81.58 58.138 82.443 59.028 82.443 60.127V60.747L82.708 60.475C82.884 60.2909 83.0955 60.1444 83.3296 60.0443C83.5638 59.9442 83.8158 59.8926 84.0705 59.8926C84.3252 59.8926 84.5772 59.9442 84.8114 60.0443C85.0456 60.1444 85.257 60.2909 85.433 60.475C86.579 61.658 85.753 62.958 85.433 63.287L82.443 66.373V66.464C82.443 68.342 83.078 70.137 84.214 71.562C85.626 69.876 86.736 67.754 87.539 65.202C86.952 63.577 86.039 59.729 88.367 55.365C89.587 53.08 91.93 50.678 94.483 49.096Z"
      fill="#3B4262" />
  </g>
  <defs>
    <filter id="filter0_d_1_32" x="0" y="0" width="153" height="159" filterUnits="userSpaceOnUse"
      color-interpolation-filters="sRGB">
      <feFlood flood-opacity="0" result="BackgroundImageFix" />
      <feColorMatrix in="SourceAlpha" type="matrix"
        values="0 0 0 0 0 0 0 0 0 0 0 0 0 0 0 0 0 0 127 0" result="hardAlpha" />
      <feOffset dy="6" />
      <feComposite in2="hardAlpha" operator="out" />
      <feColorMatrix type="matrix" values="0 0 0 0 0.5124 0 0 0 0 0.308 0 0 0 0 0.892 0 0 0 0.75 0" />
      <feBlend mode="normal" in2="BackgroundImageFix" result="effect1_dropShadow_1_32" />
      <feBlend mode="normal" in="SourceGraphic" in2="effect1_dropShadow_1_32" result="shape" />
    </filter>
    <filter id="filter1_i_1_32" x="12" y="12" width="129" height="129" filterUnits="userSpaceOnUse"
      color-interpolation-filters="sRGB">
      <feFlood flood-opacity="0" result="BackgroundImageFix" />
      <feBlend mode="normal" in="SourceGraphic" in2="BackgroundImageFix" result="shape" />
      <feColorMatrix in="SourceAlpha" type="matrix"
        values="0 0 0 0 0 0 0 0 0 0 0 0 0 0 0 0 0 0 127 0" result="hardAlpha" />
      <feOffset dy="6" />
      <feComposite in2="hardAlpha" operator="arithmetic" k2="-1" k3="1" />
      <feColorMatrix type="matrix"
        values="0 0 0 0 0.729412 0 0 0 0 0.74902 0 0 0 0 0.835294 0 0 0 0.5 0" />
      <feBlend mode="normal" in2="shape" result="effect1_innerShadow_1_32" />
    </filter>
    <clipPath id="clip0_1_32">
      <rect width="63" height="60" fill="white" transform="translate(45 47)" />
    </clipPath>
  </defs>
</svg>
  