<svg width="153" height="159" viewBox="0 0 153 159" fill="none" xmlns="http://www.w3.org/2000/svg">
  <g filter="url(#filter0_d_1_33)">
    <circle cx="76.5" cy="76.5" r="64.5" fill="white" />
    <circle cx="76.5" cy="76.5" r="70.5" stroke="#ECA922" stroke-width="12" />
  </g>
  <g filter="url(#filter1_i_1_33)">
    <circle cx="76.5" cy="76.5" r="64.5" fill="white" />
  </g>
  <g clip-path="url(#clip0_1_33)">
    <path
      d="M64.971 72.702L70.983 64.287C68.484 63.872 63.895 63.78 60.137 67.522C54.212 73.421 51.812 86.163 51.312 89.248L66.37 104.24C69.081 104.008 81.083 102.413 92.649 90.9C92.771 90.651 95.589 88.579 93.285 86.286C92.185 85.191 90.366 85.212 89.243 86.33C88.671 86.9 87.782 86.907 87.222 86.35C86.662 85.793 86.67 84.907 87.242 84.338L91.329 80.269C93.405 78.202 91.448 74.714 88.549 75.552L85.204 78.403C84.593 78.933 83.684 78.842 83.182 78.263C82.663 77.666 82.774 76.76 83.365 76.25C95.052 66.042 93.345 67.271 100.865 60.255C103.674 57.926 100.14 53.808 97.372 56.165L79.182 72.45C78.653 72.898 77.842 72.907 77.322 72.43C76.721 71.913 76.707 71.168 77.1 70.58L89.787 50.944C91.641 48.444 87.992 45.667 86.038 48.187L67.28 74.307C66.828 74.957 65.916 75.107 65.295 74.652C65.1435 74.547 65.0146 74.4126 64.916 74.2569C64.8174 74.1011 64.7511 73.9272 64.721 73.7453C64.6909 73.5635 64.6976 73.3774 64.7407 73.1982C64.7838 73.019 64.8625 72.8503 64.972 72.702H64.971Z"
      fill="#3B4262" />
  </g>
  <defs>
    <filter id="filter0_d_1_33" x="0" y="0" width="153" height="159" filterUnits="userSpaceOnUse"
      color-interpolation-filters="sRGB">
      <feFlood flood-opacity="0" result="BackgroundImageFix" />
      <feColorMatrix in="SourceAlpha" type="matrix"
        values="0 0 0 0 0 0 0 0 0 0 0 0 0 0 0 0 0 0 127 0" result="hardAlpha" />
      <feOffset dy="6" />
      <feComposite in2="hardAlpha" operator="out" />
      <feColorMatrix type="matrix"
        values="0 0 0 0 0.9261 0 0 0 0 0.62083 0 0 0 0 0.0539 0 0 0 0.75 0" />
      <feBlend mode="normal" in2="BackgroundImageFix" result="effect1_dropShadow_1_33" />
      <feBlend mode="normal" in="SourceGraphic" in2="effect1_dropShadow_1_33" result="shape" />
    </filter>
    <filter id="filter1_i_1_33" x="12" y="12" width="129" height="129" filterUnits="userSpaceOnUse"
      color-interpolation-filters="sRGB">
      <feFlood flood-opacity="0" result="BackgroundImageFix" />
      <feBlend mode="normal" in="SourceGraphic" in2="BackgroundImageFix" result="shape" />
      <feColorMatrix in="SourceAlpha" type="matrix"
        values="0 0 0 0 0 0 0 0 0 0 0 0 0 0 0 0 0 0 127 0" result="hardAlpha" />
      <feOffset dy="6" />
      <feComposite in2="hardAlpha" operator="arithmetic" k2="-1" k3="1" />
      <feColorMatrix type="matrix"
        values="0 0 0 0 0.729412 0 0 0 0 0.74902 0 0 0 0 0.835294 0 0 0 0.5 0" />
      <feBlend mode="normal" in2="shape" result="effect1_innerShadow_1_33" />
    </filter>
    <clipPath id="clip0_1_33">
      <rect width="51" height="58" fill="white" transform="translate(51 47)" />
    </clipPath>
  </defs>
</svg>
  