<svg width="64" height="64" viewBox="0 0 64 64" fill="none" xmlns="http://www.w3.org/2000/svg">
  <g clip-path="url(#clip0_12_49)">
    <path
      d="M56.04 11.921C55.719 11.167 54.579 10.766 53.837 11.025C48.397 12.926 41.601 13.166 36.491 10.052C35.718 9.57901 34.973 9.71401 34.43 10.138C33.715 10.505 33.26 11.258 33.625 12.253C35.581 17.562 35.752 23.379 35.618 28.976C35.5606 31.2038 35.4249 33.4288 35.211 35.647C35.149 36.357 35.07 37.063 34.988 37.769C34.929 38.261 34.871 38.688 34.924 38.289C34.766 39.396 35.184 40.309 36.287 40.689C41.54 42.509 47.118 43.252 52.599 42.093C53.945 41.809 55.243 41.348 56.489 40.771C58.059 40.043 58.408 38.189 58.84 36.64C61.044 28.712 59.202 19.375 56.04 11.921Z"
      fill="#B2B2B2" />
    <path
      d="M54.998 14.03C54.713 13.359 53.699 13.002 53.042 13.233C48.2 14.924 42.154 15.139 37.609 12.367C36.922 11.947 36.257 12.066 35.777 12.442C35.14 12.769 34.736 13.44 35.06 14.324C36.801 19.048 36.954 24.222 36.836 29.202C36.766 31.8165 36.5782 34.4264 36.273 37.024C36.222 37.462 36.168 37.841 36.218 37.487C36.077 38.473 36.447 39.281 37.429 39.621C42.103 41.239 47.063 41.901 51.939 40.871C53.136 40.619 54.292 40.206 55.401 39.693C56.797 39.046 57.106 37.399 57.492 36.018C59.453 28.968 57.814 20.661 54.998 14.03Z"
      fill="white" />
    <path
      d="M45.943 32.539C45.943 32.539 38.789 44.247 35.181 39.847C35.181 39.847 34.65 39.272 34.986 37.77C34.986 37.77 35.616 33.379 35.054 31.55C34.497 29.719 37.002 29.927 37.18 29.958C37.357 29.985 42.046 30.576 42.046 30.576L45.943 32.539Z"
      fill="#B2B2B2" />
    <path
      d="M43.39 33.32C43.39 33.32 39.236 40.118 37.143 37.561C37.143 37.561 36.834 37.229 37.03 36.357C37.03 36.357 37.394 33.806 37.069 32.747C36.745 31.683 38.2 31.804 38.301 31.82C38.406 31.836 41.129 32.18 41.129 32.18L43.39 33.32Z"
      fill="white" />
    <path
      d="M23.991 61.696C24.22 62.506 23.301 63.491 21.934 63.898C20.569 64.304 19.274 63.978 19.047 63.17L4.03701 10.04C3.80801 9.23201 4.73301 8.24301 6.09801 7.83801C7.46301 7.43301 8.75401 7.75901 8.98301 8.56901L23.993 61.699"
      fill="#A6A8AB" />
    <path
      d="M21.52 62.43L6.51001 9.29999C6.35801 8.76499 6.72501 8.14399 7.39001 7.66999C6.95228 7.65338 6.51479 7.70878 6.09501 7.83399C4.73001 8.23899 3.80401 9.22799 4.03301 10.035L19.043 63.165C19.27 63.973 20.564 64.299 21.93 63.893C22.3512 63.7679 22.7488 63.5743 23.107 63.32C22.3 63.287 21.67 62.971 21.516 62.427"
      fill="#939292" />
    <path
      d="M42.23 14.872C41.4369 12.5664 40.6011 10.2756 39.723 8.001C39.5397 7.525 39.3543 7.04967 39.167 6.575C38.545 5.013 36.487 3.89 35.137 2.986C29.497 -0.777997 22.664 -1.116 16.741 2.124C13.809 3.728 11.101 6.178 9.18801 8.93C8.59401 9.786 8.82401 10.621 9.39701 11.16C9.42701 11.2047 9.45901 11.2493 9.49301 11.294C11.128 13.345 12.72 16.14 13.541 18.589C14.632 21.839 15.409 25.413 16.158 28.753C17.093 32.922 17.241 36.833 17.844 41.058C18.083 42.725 20.422 42.772 21.407 41.524C24.814 37.221 29.719 35.08 34.632 34.219C37.792 33.663 41.1 33.439 44.313 33.572C45.381 33.619 46.253 32.653 46.261 31.624C46.307 25.983 44.035 20.131 42.23 14.872Z"
      fill="#B2B2B2" />
    <path
      d="M40.783 14.614C40.061 12.5249 39.3036 10.4483 38.511 8.385C38.3443 7.953 38.1763 7.522 38.007 7.092C37.444 5.676 35.577 4.658 34.35 3.839C29.237 0.427005 23.039 0.119004 17.671 3.057C15.011 4.51 12.557 6.732 10.822 9.228C10.282 10.004 10.493 10.761 11.013 11.248C11.0396 11.2887 11.0683 11.329 11.099 11.369C12.581 13.228 13.391 15.699 14.136 17.921C15.124 20.866 15.873 23.893 16.552 26.921C17.4092 30.7032 18.1164 34.5179 18.672 38.356C18.887 39.868 21.007 39.909 21.901 38.776C24.991 34.877 29.439 32.934 33.892 32.154C36.7884 31.6464 39.7308 31.4497 42.669 31.567C43.639 31.61 44.429 30.732 44.437 29.799C44.477 24.685 42.417 19.379 40.783 14.612"
      fill="white" />
  </g>
  <defs>
    <clipPath id="clip0_12_49">
      <rect width="64" height="64" fill="white" />
    </clipPath>
  </defs>
</svg>
  